<svg width="560" height="560" viewBox="0 0 560 560" fill="none" xmlns="http://www.w3.org/2000/svg">
<g opacity="0.1">
<path d="M40.5079 434.58L101.414 460.318L50.9681 409.872L40.5079 434.58Z" fill="white"/>
<path d="M333.25 53.2733L506.803 226.826L453.08 280.549L279.527 106.996L333.25 53.2733Z" fill="white"/>
<path d="M266.944 386.319C244.8 364.176 208.73 364.179 186.589 386.319C164.446 408.463 164.449 444.533 186.589 466.674C208.733 488.817 244.803 488.814 266.944 466.674C289.087 444.53 289.084 408.46 266.944 386.319ZM260.077 442.219H193.456C191.015 442.219 188.77 441.256 187.038 439.524C185.307 437.793 184.405 435.479 184.343 433.106L184.403 406.471C184.403 401.466 188.448 397.42 193.454 397.42C198.46 397.42 202.505 401.465 202.505 406.471V424.059H260.013C265.019 424.059 269.064 428.104 269.064 433.109C269.064 438.115 265.082 442.219 260.077 442.219Z" fill="white"/>
<path d="M163.348 144.217L282.406 25.1597L224.191 0.448795L163.348 144.217Z" fill="white"/>
<path d="M519.571 125.477L458.665 99.7395L509.111 150.186L519.571 125.477Z" fill="white"/>
<path d="M0 333.239L226.761 560L560 226.761L333.239 0L0 333.239ZM173.811 479.452C144.608 450.249 144.608 402.622 173.811 373.419C203.015 344.215 250.641 344.215 279.844 373.419C309.047 402.621 309.048 450.248 279.844 479.452C250.573 508.716 203.015 508.655 173.811 479.452ZM326.818 34.016C330.349 30.4849 336.123 30.4849 339.654 34.016L526.044 220.405C529.575 223.936 529.575 229.71 526.044 233.241L459.485 299.8C455.954 303.331 450.18 303.331 446.649 299.8L260.26 113.411C256.729 109.88 256.729 104.106 260.26 100.575L326.818 34.016ZM246.524 127.146L432.914 313.535C436.445 317.066 436.445 322.84 432.914 326.371C429.383 329.902 423.609 329.902 420.078 326.371L233.685 139.985C230.154 136.454 230.154 130.68 233.685 127.149C237.216 123.618 242.993 123.615 246.524 127.146ZM219.886 153.784L406.275 340.174C409.806 343.705 409.806 349.479 406.275 353.01C402.744 356.541 396.97 356.541 393.439 353.01L207.05 166.62C203.519 163.089 203.519 157.315 207.05 153.784C210.581 150.253 216.355 150.253 219.886 153.784ZM193.251 180.42L379.64 366.809C383.171 370.34 383.171 376.114 379.64 379.645C376.109 383.176 370.335 383.176 366.804 379.645L180.415 193.256C176.883 189.725 176.883 183.951 180.415 180.42C183.946 176.889 189.72 176.889 193.251 180.42ZM166.615 207.055L353.005 393.444C356.536 396.975 356.536 402.749 353.005 406.28C349.473 409.812 343.7 409.812 340.168 406.28L153.779 219.891C150.248 216.36 150.248 210.586 153.779 207.055C157.307 203.527 163.084 203.524 166.615 207.055ZM139.98 233.69L193.254 286.964C196.785 290.495 196.785 296.269 193.254 299.8C189.723 303.331 183.949 303.331 180.418 299.8L127.144 246.526C123.613 242.995 123.613 237.222 127.144 233.69C130.672 230.162 136.449 230.159 139.98 233.69ZM113.407 260.264L166.68 313.538C170.211 317.069 170.211 322.842 166.68 326.374C163.149 329.905 157.375 329.905 153.844 326.374L100.57 273.1C97.0394 269.569 97.0394 263.795 100.57 260.264C104.099 256.736 109.875 256.733 113.407 260.264Z" fill="white"/>
<path d="M396.728 415.843L277.67 534.901L335.884 559.612L396.728 415.843Z" fill="white"/>
</g>
</svg>
