<svg width="200" height="200" viewBox="0 0 200 200" fill="none" xmlns="http://www.w3.org/2000/svg">
<path fill-rule="evenodd" clip-rule="evenodd" d="M100 -8.74228e-06C44.7715 -1.35705e-05 1.35705e-05 44.7715 8.74228e-06 100C3.91405e-06 155.228 44.7715 200 100 200C155.228 200 200 155.228 200 100C200 44.7715 155.228 -3.91405e-06 100 -8.74228e-06ZM96.1109 71.9904L61.1091 106.992C58.9612 109.14 58.9612 112.622 61.1091 114.77C63.257 116.918 66.7394 116.918 68.8873 114.77L100 83.6576L131.113 114.77C133.261 116.918 136.743 116.918 138.891 114.77C141.039 112.622 141.039 109.14 138.891 106.992L103.889 71.9904C101.741 69.8425 98.2588 69.8425 96.1109 71.9904Z" fill="white"/>
</svg>
